{"glyphs":{"0":{"ha":835,"x_min":0,"x_max":0,"o":"m 175 122 l 175 0 l 660 0 l 660 122 l 782 122 l 782 850 l 660 850 l 660 972 l 175 972 l 175 850 l 53 850 l 53 122 z m 296 486 l 418 486 l 418 607 l 296 607 l 296 850 l 539 850 l 539 729 l 418 729 l 418 607 l 539 607 l 539 122 l 296 122 z "},"1":{"ha":460,"x_min":0,"x_max":0,"o":"m 39 607 l 160 607 l 160 0 l 403 0 l 403 972 l 160 972 l 160 850 l 39 850 z "},"2":{"ha":831,"x_min":0,"x_max":0,"o":"m 51 0 l 781 0 l 781 243 l 538 243 l 538 122 l 294 122 l 294 486 l 658 486 l 658 607 l 781 607 l 781 850 l 658 850 l 658 972 l 174 972 l 174 850 l 51 850 l 51 729 l 294 729 l 294 850 l 538 850 l 538 607 l 174 607 l 174 486 l 51 486 z "},"3":{"ha":829,"x_min":0,"x_max":0,"o":"m 289 729 l 289 850 l 532 850 l 532 607 l 289 607 l 289 486 l 532 486 l 532 122 l 289 122 l 289 365 l 46 365 l 46 122 l 168 122 l 168 0 l 653 0 l 653 122 l 775 122 l 775 486 l 653 486 l 653 607 l 775 607 l 775 850 l 653 850 l 653 972 l 168 972 l 168 850 l 46 850 l 46 729 z "},"4":{"ha":854,"x_min":0,"x_max":0,"o":"m 69 972 l 69 729 l 192 729 l 192 607 l 313 607 l 313 486 l 556 486 l 556 0 l 799 0 l 799 972 l 556 972 l 556 607 l 313 607 l 313 972 z "},"5":{"ha":833,"x_min":0,"x_max":0,"o":"m 51 365 l 51 122 l 174 122 l 174 0 l 658 0 l 658 121 l 781 121 l 781 486 l 658 486 l 658 607 l 294 607 l 294 850 l 538 850 l 538 729 l 781 729 l 781 972 l 51 972 l 51 607 l 174 607 l 174 486 l 538 486 l 538 122 l 294 122 l 294 365 z "},"6":{"ha":835,"x_min":0,"x_max":0,"o":"m 53 850 l 53 122 l 174 122 l 174 0 l 660 0 l 660 122 l 782 122 l 782 607 l 296 607 l 296 850 l 539 850 l 539 729 l 782 729 l 782 850 l 660 850 l 660 972 l 174 972 l 174 850 z m 539 122 l 296 122 l 296 486 l 539 486 z "},"7":{"ha":868,"x_min":0,"x_max":0,"o":"m 69 729 l 313 729 l 313 850 l 556 850 l 556 607 l 433 607 l 433 486 l 313 486 l 313 0 l 556 0 l 556 607 l 676 607 l 676 729 l 799 729 l 799 972 l 69 972 z "},"8":{"ha":835,"x_min":0,"x_max":0,"o":"m 53 122 l 174 122 l 174 0 l 660 0 l 660 122 l 782 122 l 782 486 l 660 486 l 660 607 l 782 607 l 782 850 l 660 850 l 660 972 l 174 972 l 174 850 l 53 850 l 53 607 l 174 607 l 174 486 l 53 486 z m 296 486 l 539 486 l 539 122 l 296 122 z m 539 607 l 296 607 l 296 850 l 539 850 z "},"9":{"ha":833,"x_min":0,"x_max":0,"o":"m 50 365 l 50 122 l 172 122 l 172 0 l 657 0 l 657 122 l 779 122 l 779 850 l 657 850 l 657 972 l 172 972 l 172 850 l 50 850 l 50 607 l 172 607 l 172 486 l 536 486 l 536 122 l 293 122 l 293 365 z m 536 607 l 293 607 l 293 850 l 536 850 z "},"\u0000":{"ha":0,"x_min":0,"x_max":0,"o":""},"\r":{"ha":0,"x_min":0,"x_max":0,"o":""}," ":{"ha":429,"x_min":0,"x_max":0,"o":""},"\n":{"ha":0,"x_min":0,"x_max":0,"o":""},"!":{"ha":349,"x_min":0,"x_max":0,"o":"m 53 954 l 53 225 l 296 225 l 296 954 z m 296 -18 l 296 103 l 53 103 l 53 -18 z "},"\"":{"ha":557,"x_min":0,"x_max":0,"o":"m 156 711 l 156 832 l 278 832 l 278 711 l 399 711 l 399 832 l 521 832 l 521 954 l 399 954 l 399 832 l 278 832 l 278 954 l 156 954 l 156 832 l 35 832 l 35 711 z "},"#":{"ha":1058,"x_min":0,"x_max":0,"o":"m 43 589 l 165 589 l 165 346 l 43 346 l 43 225 l 165 225 l 165 -18 l 408 -18 l 408 225 l 651 225 l 651 -18 l 894 -18 l 894 225 l 1015 225 l 1015 346 l 894 346 l 893 589 l 1015 589 l 1015 711 l 893 711 l 893 954 l 651 954 l 651 711 l 408 711 l 408 954 l 165 954 l 165 711 l 43 711 z m 408 346 l 408 589 l 651 589 l 651 346 z "},"$":{"ha":824,"x_min":0,"x_max":0,"o":"m 47 225 l 47 103 l 169 103 l 169 -18 l 290 -18 l 290 -140 l 533 -140 l 533 -18 l 654 -18 l 654 103 l 776 103 l 776 346 l 654 346 l 654 468 l 290 468 l 290 711 l 533 711 l 533 589 l 776 589 l 776 711 l 656 711 l 656 832 l 533 832 l 533 954 l 290 954 l 290 832 l 169 832 l 169 711 l 47 711 l 47 468 l 169 468 l 169 346 l 533 346 l 533 103 l 290 103 l 290 225 z "},"%":{"ha":1186,"x_min":0,"x_max":0,"o":"m 289 -18 l 289 103 l 411 103 l 411 225 l 532 225 l 532 346 l 654 346 l 654 468 l 775 468 l 775 589 l 897 589 l 897 711 l 1018 711 l 1018 832 l 1139 832 l 1139 954 l 897 954 l 897 832 l 775 832 l 775 711 l 654 711 l 654 589 l 532 589 l 532 468 l 411 468 l 411 346 l 289 346 l 289 225 l 168 225 l 168 103 l 46 103 l 46 -18 z m 46 954 l 46 589 l 411 589 l 411 954 z m 1140 -18 l 1140 346 l 775 346 l 775 -18 z "},"&":{"ha":943,"x_min":0,"x_max":0,"o":"m 53 589 l 174 589 l 174 468 l 53 468 l 53 103 l 174 103 l 174 -18 l 903 -18 l 903 103 l 782 103 l 782 468 l 903 468 l 903 589 l 782 589 l 782 711 l 539 711 l 539 589 l 296 589 l 296 832 l 660 832 l 660 954 l 174 954 l 174 832 l 53 832 z m 539 468 l 539 103 l 296 103 l 296 468 z "},"'":{"ha":313,"x_min":0,"x_max":0,"o":"m 35 832 l 35 711 l 157 711 l 157 832 l 278 832 l 278 954 l 157 954 l 157 832 z "},"(":{"ha":453,"x_min":0,"x_max":0,"o":"m 51 711 l 51 -18 l 174 -18 l 174 -140 l 294 -140 l 294 -261 l 415 -261 l 415 -18 l 294 -18 l 294 711 l 415 711 l 415 954 l 294 954 l 294 832 l 174 832 l 174 711 z "},")":{"ha":453,"x_min":0,"x_max":0,"o":"m 36 954 l 36 711 l 158 711 l 158 -18 l 36 -18 l 36 -261 l 158 -261 l 158 -140 l 279 -140 l 279 -18 l 400 -18 l 400 711 l 279 711 l 279 832 l 158 832 l 158 954 z "},"*":{"ha":800,"x_min":0,"x_max":0,"o":"m 35 711 l 35 589 l 278 589 l 278 468 l 157 468 l 157 346 l 278 346 l 278 468 l 521 468 l 521 346 l 642 346 l 642 468 l 521 468 l 521 589 l 764 589 l 764 711 l 521 711 l 521 832 l 642 832 l 642 954 l 521 954 l 521 832 l 278 832 l 278 954 l 157 954 l 157 832 l 278 832 l 278 711 z "},"+":{"ha":672,"x_min":0,"x_max":0,"o":"m 32 346 l 32 225 l 275 225 l 275 -18 l 397 -18 l 397 225 l 640 225 l 640 346 l 396 346 l 396 589 l 275 589 l 275 346 z "},",":{"ha":321,"x_min":0,"x_max":0,"o":"m -83 -140 l -83 -261 l 38 -261 l 38 -140 l 160 -140 l 160 -18 l 281 -18 l 281 225 l 38 225 l 38 -140 z "},"-":{"ha":675,"x_min":0,"x_max":0,"o":"m 33 346 l 33 225 l 642 225 l 642 346 z "},".":{"ha":321,"x_min":0,"x_max":0,"o":"m 39 225 l 39 -18 l 282 -18 l 282 225 z "},"/":{"ha":1232,"x_min":0,"x_max":0,"o":"m 69 -18 l 313 -18 l 313 103 l 435 103 l 435 225 l 556 225 l 556 346 l 678 346 l 678 468 l 799 468 l 799 589 l 921 589 l 921 711 l 1042 711 l 1042 832 l 1163 832 l 1163 954 l 919 954 l 919 832 l 799 832 l 799 711 l 678 711 l 678 589 l 556 589 l 556 468 l 433 468 l 433 346 l 313 346 l 313 225 l 192 225 l 192 103 l 69 103 z "},":":{"ha":335,"x_min":0,"x_max":0,"o":"m 46 711 l 46 468 l 289 468 l 289 711 z m 289 -18 l 289 225 l 46 225 l 46 -18 z "},";":{"ha":336,"x_min":0,"x_max":0,"o":"m -75 -261 l 46 -261 l 46 -140 l 168 -140 l 168 -18 l 289 -18 l 289 225 l 46 225 l 46 -140 l -75 -140 z m 46 711 l 46 468 l 289 468 l 289 711 z "},"<":{"ha":565,"x_min":0,"x_max":0,"o":"m 163 225 l 163 103 l 283 103 l 283 -18 l 526 -18 l 526 103 l 404 103 l 404 225 l 283 225 l 283 468 l 404 468 l 404 589 l 526 589 l 526 711 l 283 711 l 283 589 l 163 589 l 163 468 l 40 468 l 40 225 z "},"=":{"ha":686,"x_min":0,"x_max":0,"o":"m 39 468 l 39 346 l 646 346 l 646 468 z m 646 103 l 646 225 l 39 225 l 39 103 z "},">":{"ha":565,"x_min":0,"x_max":0,"o":"m 39 -18 l 282 -18 l 282 103 l 404 103 l 404 225 l 525 225 l 525 468 l 404 468 l 404 589 l 282 589 l 282 711 l 39 711 l 39 589 l 161 589 l 161 468 l 282 468 l 282 225 l 161 225 l 161 103 l 39 103 z "},"?":{"ha":835,"x_min":0,"x_max":0,"o":"m 69 832 l 69 711 l 313 711 l 313 832 l 556 832 l 556 589 l 313 589 l 313 225 l 556 225 l 556 468 l 676 468 l 676 589 l 799 589 l 799 832 l 676 832 l 676 954 l 192 954 l 192 832 z m 313 -18 l 556 -18 l 556 103 l 313 103 z "},"@":{"ha":1315,"x_min":0,"x_max":0,"o":"m 171 103 l 171 -18 l 1143 -18 l 1143 103 l 171 103 l 171 711 l 293 711 l 293 832 l 1143 832 l 1143 346 l 1022 346 l 1022 711 l 414 711 l 414 589 l 293 589 l 293 346 l 414 346 l 414 225 l 1265 225 l 1265 832 l 1143 832 l 1143 954 l 293 954 l 293 832 l 171 832 l 171 711 l 50 711 l 50 103 z m 536 346 l 536 589 l 779 589 l 779 346 z "},"A":{"ha":832,"x_min":0,"x_max":0,"o":"m 51 850 l 51 0 l 294 0 l 294 486 l 538 486 l 538 0 l 781 0 l 781 850 l 658 850 l 658 972 l 174 972 l 174 850 z m 294 850 l 538 850 l 538 607 l 294 607 z "},"B":{"ha":829,"x_min":0,"x_max":0,"o":"m 56 0 l 664 0 l 664 122 l 785 122 l 785 486 l 664 486 l 664 607 l 785 607 l 785 850 l 664 850 l 664 972 l 56 972 z m 299 486 l 542 486 l 542 122 l 299 122 z m 299 850 l 542 850 l 542 607 l 299 607 z "},"C":{"ha":819,"x_min":0,"x_max":0,"o":"m 46 122 l 168 122 l 168 0 l 653 0 l 653 122 l 775 122 l 775 486 l 532 486 l 532 122 l 289 122 l 289 850 l 532 850 l 532 607 l 775 607 l 775 850 l 653 850 l 653 972 l 168 972 l 168 850 l 46 850 z "},"D":{"ha":832,"x_min":0,"x_max":0,"o":"m 56 972 l 56 0 l 663 0 l 663 122 l 785 122 l 785 850 l 663 850 l 663 972 z m 299 850 l 542 850 l 542 122 l 299 122 z "},"E":{"ha":822,"x_min":0,"x_max":0,"o":"m 785 0 l 785 365 l 542 365 l 542 122 l 299 122 l 299 486 l 542 486 l 542 607 l 299 607 l 299 850 l 542 850 l 542 729 l 785 729 l 785 972 l 56 972 l 56 0 z "},"F":{"ha":785,"x_min":0,"x_max":0,"o":"m 299 0 l 299 486 l 542 486 l 542 607 l 299 607 l 299 850 l 542 850 l 542 729 l 785 729 l 785 972 l 56 972 l 56 0 z "},"G":{"ha":819,"x_min":0,"x_max":0,"o":"m 168 122 l 168 0 l 653 0 l 653 122 l 775 122 l 775 607 l 411 607 l 411 486 l 532 486 l 532 122 l 289 122 l 289 850 l 532 850 l 532 729 l 775 729 l 775 850 l 653 850 l 653 972 l 168 972 l 168 850 l 46 850 l 46 122 z "},"H":{"ha":840,"x_min":0,"x_max":0,"o":"m 299 0 l 299 486 l 542 486 l 542 0 l 785 0 l 785 972 l 542 972 l 542 607 l 299 607 l 299 972 l 56 972 l 56 0 z "},"I":{"ha":354,"x_min":0,"x_max":0,"o":"m 56 972 l 56 0 l 299 0 l 299 972 z "},"J":{"ha":789,"x_min":0,"x_max":0,"o":"m 10 122 l 131 122 l 131 0 l 617 0 l 617 122 l 739 122 l 739 972 l 131 972 l 131 850 l 496 850 l 496 122 l 253 122 l 253 365 l 10 365 z "},"K":{"ha":832,"x_min":0,"x_max":0,"o":"m 56 972 l 56 0 l 299 0 l 299 486 l 542 486 l 542 0 l 785 0 l 785 486 l 542 486 l 542 607 l 664 607 l 664 729 l 785 729 l 785 972 l 542 972 l 542 607 l 299 607 l 299 972 z "},"L":{"ha":775,"x_min":0,"x_max":0,"o":"m 299 122 l 299 972 l 56 972 l 56 0 l 785 0 l 785 122 z "},"M":{"ha":963,"x_min":0,"x_max":0,"o":"m 56 972 l 56 0 l 299 0 l 299 729 l 421 729 l 421 607 l 542 607 l 542 729 l 663 729 l 663 0 l 906 0 l 906 972 l 663 972 l 663 850 l 542 850 l 542 729 l 421 729 l 421 850 l 299 850 l 299 972 z "},"N":{"ha":840,"x_min":0,"x_max":0,"o":"m 56 972 l 56 0 l 299 0 l 299 729 l 421 729 l 421 607 l 542 607 l 542 0 l 785 0 l 785 972 l 542 972 l 542 729 l 421 729 l 421 850 l 299 850 l 299 972 z "},"O":{"ha":821,"x_min":0,"x_max":0,"o":"m 46 850 l 46 122 l 167 122 l 167 0 l 653 0 l 653 122 l 775 122 l 775 850 l 653 850 l 653 972 l 167 972 l 167 850 z m 532 122 l 289 122 l 289 850 l 532 850 z "},"P":{"ha":790,"x_min":0,"x_max":0,"o":"m 56 0 l 299 0 l 299 486 l 664 486 l 664 607 l 785 607 l 785 850 l 664 850 l 664 972 l 56 972 z m 299 850 l 542 850 l 542 607 l 299 607 z "},"Q":{"ha":824,"x_min":0,"x_max":0,"o":"m 46 122 l 167 122 l 167 0 l 532 0 l 532 122 l 653 122 l 653 0 l 775 0 l 775 122 l 653 122 l 653 243 l 775 243 l 775 850 l 653 850 l 653 972 l 167 972 l 167 850 l 46 850 z m 289 850 l 532 850 l 532 365 l 410 365 l 410 243 l 532 243 l 532 122 l 289 122 z "},"R":{"ha":833,"x_min":0,"x_max":0,"o":"m 56 0 l 299 0 l 299 486 l 542 486 l 542 0 l 785 0 l 785 486 l 663 486 l 663 607 l 785 607 l 785 850 l 663 850 l 663 972 l 56 972 z m 299 850 l 542 850 l 542 607 l 299 607 z "},"S":{"ha":803,"x_min":0,"x_max":0,"o":"m 36 607 l 158 607 l 158 486 l 522 486 l 522 122 l 279 122 l 279 365 l 36 365 l 36 122 l 158 122 l 158 0 l 644 0 l 644 122 l 765 122 l 765 486 l 644 486 l 644 607 l 279 607 l 279 850 l 522 850 l 522 729 l 765 729 l 765 850 l 643 850 l 643 972 l 158 972 l 158 850 l 36 850 z "},"T":{"ha":706,"x_min":0,"x_max":0,"o":"m 231 850 l 231 0 l 474 0 l 474 850 l 717 850 l 717 972 l -12 972 l -12 850 z "},"U":{"ha":836,"x_min":0,"x_max":0,"o":"m 50 122 l 172 122 l 172 0 l 779 0 l 779 972 l 536 972 l 536 122 l 293 122 l 293 972 l 50 972 z "},"V":{"ha":814,"x_min":0,"x_max":0,"o":"m 42 243 l 164 243 l 164 122 l 285 122 l 285 0 l 528 0 l 528 122 l 649 122 l 649 243 l 771 243 l 771 972 l 528 972 l 528 243 l 285 243 l 285 972 l 42 972 z "},"W":{"ha":951,"x_min":0,"x_max":0,"o":"m 415 486 l 415 243 l 536 243 l 536 122 l 658 122 l 658 0 l 779 0 l 779 122 l 900 122 l 900 972 l 657 972 l 657 243 l 536 243 l 536 486 z m 50 122 l 171 122 l 171 0 l 293 0 l 293 122 l 414 122 l 414 243 l 293 243 l 293 972 l 50 972 z "},"X":{"ha":804,"x_min":0,"x_max":0,"o":"m 38 729 l 158 729 l 158 607 l 281 607 l 281 486 l 158 486 l 158 365 l 38 365 l 38 0 l 281 0 l 281 486 l 524 486 l 524 0 l 767 0 l 767 365 l 644 365 l 644 486 l 524 486 l 524 607 l 281 607 l 281 972 l 38 972 z m 644 608 l 644 729 l 767 729 l 767 972 l 524 972 l 524 608 z "},"Y":{"ha":729,"x_min":0,"x_max":0,"o":"m 121 729 l 121 607 l 243 607 l 243 0 l 486 0 l 486 607 l 243 607 l 243 972 l 0 972 l 0 729 z m 607 608 l 607 729 l 729 729 l 729 972 l 486 972 l 486 608 z "},"Z":{"ha":796,"x_min":0,"x_max":0,"o":"m 28 243 l 28 0 l 757 0 l 757 365 l 514 365 l 514 122 l 271 122 l 271 365 l 393 365 l 393 486 l 514 486 l 514 607 l 636 607 l 636 729 l 757 729 l 757 972 l 28 972 l 28 729 l 271 729 l 271 850 l 514 850 l 514 607 l 393 607 l 393 486 l 271 486 l 271 365 l 150 365 l 150 243 z "},"[":{"ha":446,"x_min":0,"x_max":0,"o":"m 56 954 l 56 -261 l 421 -261 l 421 -140 l 299 -140 l 299 832 l 421 832 l 421 954 z "},"\\":{"ha":1232,"x_min":0,"x_max":0,"o":"m 190 832 l 190 711 l 313 711 l 313 589 l 433 589 l 433 468 l 556 468 l 556 346 l 676 346 l 676 225 l 799 225 l 799 103 l 919 103 l 919 -18 l 1163 -18 l 1163 103 l 1042 103 l 1042 225 l 919 225 l 919 346 l 799 346 l 799 468 l 676 468 l 676 589 l 556 589 l 556 711 l 433 711 l 433 832 l 313 832 l 313 954 l 69 954 l 69 832 z "},"]":{"ha":446,"x_min":0,"x_max":0,"o":"m 389 -261 l 389 954 l 25 954 l 25 832 l 146 832 l 146 -140 l 25 -140 l 25 -261 z "},"^":{"ha":1031,"x_min":0,"x_max":0,"o":"m 29 468 l 272 468 l 272 589 l 393 589 l 393 711 l 636 711 l 636 589 l 758 589 l 758 468 l 1001 468 l 1001 589 l 879 589 l 879 711 l 758 711 l 758 832 l 636 832 l 636 954 l 393 954 l 393 832 l 272 832 l 272 711 l 150 711 l 150 589 l 29 589 z "},"_":{"ha":842,"x_min":0,"x_max":0,"o":"m 56 -18 l 56 -140 l 785 -140 l 785 -18 z "},"`":{"ha":313,"x_min":0,"x_max":0,"o":"m 156 832 l 156 711 l 278 711 l 278 832 l 156 832 l 156 954 l 35 954 l 35 832 z "},"a":{"ha":792,"x_min":0,"x_max":0,"o":"m 18 365 l 18 122 l 140 122 l 140 0 l 747 0 l 747 607 l 625 607 l 625 729 l 140 729 l 140 607 l 504 607 l 504 486 l 140 486 l 140 365 z m 504 122 l 261 122 l 261 364 l 504 364 z "},"b":{"ha":821,"x_min":0,"x_max":0,"o":"m 51 972 l 51 0 l 660 0 l 660 121 l 781 121 l 781 607 l 660 607 l 660 729 l 294 729 l 294 972 z m 294 607 l 538 607 l 538 122 l 294 122 z "},"c":{"ha":804,"x_min":0,"x_max":0,"o":"m 161 122 l 161 0 l 646 0 l 646 122 l 768 122 l 768 364 l 525 364 l 525 122 l 282 122 l 282 607 l 525 607 l 525 486 l 768 486 l 768 607 l 646 607 l 646 729 l 161 729 l 161 607 l 39 607 l 39 122 z "},"d":{"ha":821,"x_min":0,"x_max":0,"o":"m 39 607 l 39 122 l 161 122 l 161 0 l 768 0 l 768 972 l 525 972 l 525 729 l 161 729 l 161 607 z m 525 122 l 282 122 l 282 607 l 525 607 z "},"e":{"ha":799,"x_min":0,"x_max":0,"o":"m 39 122 l 161 122 l 161 0 l 646 0 l 646 122 l 282 122 l 282 243 l 768 243 l 768 607 l 646 607 l 646 729 l 161 729 l 161 607 l 39 607 z m 282 607 l 525 607 l 525 364 l 282 364 z "},"f":{"ha":621,"x_min":0,"x_max":0,"o":"m 131 486 l 131 0 l 374 0 l 374 486 l 615 486 l 615 607 l 374 607 l 374 850 l 494 850 l 494 729 l 738 729 l 738 850 l 615 850 l 615 972 l 251 972 l 251 850 l 131 850 l 131 607 l 8 607 l 8 486 z "},"g":{"ha":814,"x_min":0,"x_max":0,"o":"m 39 122 l 160 122 l 160 0 l 525 0 l 525 -121 l 160 -121 l 160 -243 l 646 -243 l 646 -121 l 768 -121 l 768 608 l 646 608 l 646 729 l 161 729 l 161 607 l 39 607 z m 282 607 l 525 607 l 525 122 b 282 122 525 122 282 122 z "},"h":{"ha":826,"x_min":0,"x_max":0,"o":"m 51 0 l 294 0 l 294 607 l 538 607 l 538 0 l 781 0 l 781 607 l 658 607 l 658 729 l 294 729 l 294 972 l 51 972 z "},"i":{"ha":347,"x_min":0,"x_max":0,"o":"m 51 729 l 51 0 l 294 0 l 294 729 z m 294 851 l 294 972 l 51 972 l 51 851 z "},"j":{"ha":347,"x_min":0,"x_max":0,"o":"m -192 -243 l 174 -243 l 174 -121 l 294 -121 l 294 729 l 51 729 l 51 -121 l -192 -121 z m 51 972 l 51 851 l 294 851 l 294 972 z "},"k":{"ha":810,"x_min":0,"x_max":0,"o":"m 51 0 l 294 0 l 294 486 l 538 486 l 538 0 l 781 0 l 781 364 l 660 364 l 660 486 l 538 486 l 538 607 l 660 607 l 660 729 l 781 729 l 781 850 l 660 850 l 660 729 l 538 729 l 538 607 l 294 607 l 294 972 l 51 972 z "},"l":{"ha":347,"x_min":0,"x_max":0,"o":"m 51 972 l 51 0 l 294 0 l 294 972 z "},"m":{"ha":947,"x_min":0,"x_max":0,"o":"m 51 0 l 294 0 l 294 607 l 417 607 l 417 0 l 538 0 l 538 607 l 658 607 l 658 0 l 901 0 l 901 607 l 781 607 l 781 729 l 51 729 z "},"n":{"ha":825,"x_min":0,"x_max":0,"o":"m 294 0 l 294 607 l 538 607 l 538 0 l 781 0 l 781 607 l 658 607 l 658 729 l 51 729 l 51 0 z "},"o":{"ha":807,"x_min":0,"x_max":0,"o":"m 39 607 l 39 122 l 160 122 l 160 0 l 646 0 l 646 122 l 768 122 l 768 607 l 646 607 l 646 729 l 160 729 l 160 607 z m 525 122 l 282 122 l 282 607 l 525 607 z "},"p":{"ha":819,"x_min":0,"x_max":0,"o":"m 51 -243 l 294 -243 l 294 0 l 660 0 l 660 121 l 781 121 l 781 607 l 660 607 l 660 729 l 51 729 z m 294 607 l 538 607 l 538 122 l 294 122 z "},"q":{"ha":821,"x_min":0,"x_max":0,"o":"m 39 122 l 161 122 l 161 0 l 525 0 l 525 -243 l 768 -243 l 768 729 l 160 729 l 160 607 l 39 607 z m 282 607 l 525 607 l 525 122 l 282 122 z "},"r":{"ha":658,"x_min":0,"x_max":0,"o":"m 51 0 l 294 0 l 294 486 l 417 486 l 417 607 l 658 607 l 658 729 l 417 729 l 417 607 l 294 607 l 294 729 l 51 729 z "},"s":{"ha":775,"x_min":0,"x_max":0,"o":"m 26 607 l 26 486 l 149 486 l 149 364 l 513 364 l 513 122 l 149 122 l 149 243 l 26 243 l 26 122 l 149 122 l 149 0 l 633 0 l 633 122 l 756 122 l 756 364 l 635 365 l 635 486 l 269 486 l 269 607 l 633 607 l 633 729 l 149 729 l 149 607 z "},"t":{"ha":626,"x_min":0,"x_max":0,"o":"m 3 607 l 125 607 l 125 121 l 246 121 l 246 0 l 611 0 l 611 121 l 368 121 l 368 608 l 611 608 l 611 729 l 368 729 l 368 972 l 246 972 l 246 851 l 125 851 l 125 729 l 3 729 z "},"u":{"ha":826,"x_min":0,"x_max":0,"o":"m 44 729 l 44 121 l 167 121 l 167 0 l 774 0 l 774 729 l 531 729 l 531 122 l 288 122 l 288 729 z "},"v":{"ha":797,"x_min":0,"x_max":0,"o":"m 33 243 l 156 243 l 156 121 l 276 121 l 276 0 l 519 0 l 519 121 l 640 121 l 640 243 l 763 243 l 763 729 l 519 729 l 519 243 l 276 243 l 276 729 l 33 729 z "},"w":{"ha":940,"x_min":0,"x_max":0,"o":"m 410 243 l 531 243 l 531 121 l 653 121 l 653 0 l 774 0 l 774 121 l 894 121 l 896 729 l 653 729 l 653 243 l 531 243 l 531 486 l 410 486 z m 44 729 l 44 121 l 165 121 l 165 0 l 288 0 l 288 121 l 408 121 l 408 243 l 288 243 l 288 729 z "},"x":{"ha":785,"x_min":0,"x_max":0,"o":"m 28 729 l 28 608 l 149 608 l 149 486 l 271 486 l 271 365 l 149 365 l 149 243 l 28 243 l 28 0 l 271 0 l 271 365 l 514 365 l 514 0 l 757 0 l 757 243 l 635 243 l 635 365 l 514 365 l 514 486 l 635 486 l 635 608 l 757 608 l 757 729 l 514 729 l 514 486 l 271 486 l 271 729 z "},"y":{"ha":825,"x_min":0,"x_max":0,"o":"m 44 122 l 167 122 l 167 0 l 531 0 l 531 -121 l 167 -121 l 167 -243 l 651 -243 l 651 -121 l 774 -121 l 774 729 l 531 729 l 531 122 l 288 122 l 288 729 l 44 729 z "},"z":{"ha":786,"x_min":0,"x_max":0,"o":"m 28 729 l 28 486 l 271 486 l 271 607 l 514 607 l 514 486 l 393 486 l 393 364 l 514 364 l 514 486 l 636 486 l 636 607 l 757 607 l 757 729 z m 28 121 l 28 0 l 757 0 l 757 243 l 514 243 l 514 122 l 271 122 l 271 243 l 392 243 l 392 364 l 271 364 l 271 243 l 150 243 l 150 121 z "},"{":{"ha":542,"x_min":0,"x_max":0,"o":"m 39 468 l 39 225 l 282 225 l 282 103 l 161 103 l 160 -140 l 282 -140 l 282 -261 l 525 -261 l 525 -140 l 403 -140 l 403 -18 l 282 -18 l 282 103 l 403 103 l 403 225 l 282 225 l 282 468 l 403 468 l 403 589 l 282 589 l 282 711 l 403 711 l 403 832 l 525 832 l 525 954 l 282 954 l 282 832 l 160 832 l 160 589 l 282 589 l 282 468 z "},"|":{"ha":354,"x_min":0,"x_max":0,"o":"m 56 954 l 56 -261 l 299 -261 l 299 954 z "},"}":{"ha":542,"x_min":0,"x_max":0,"o":"m 260 -261 l 260 -140 l 381 -140 l 381 103 l 260 103 l 260 225 l 503 225 l 503 468 l 260 468 l 260 589 l 382 589 l 382 832 l 260 832 l 260 954 l 17 954 l 17 832 l 139 832 l 139 711 l 260 711 l 260 589 l 139 589 l 139 468 l 260 468 l 260 225 l 139 225 l 139 103 l 260 103 l 260 -18 l 139 -18 l 139 -140 l 17 -140 l 17 -261 z "},"~":{"ha":799,"x_min":0,"x_max":0,"o":"m 35 346 l 35 225 l 157 225 l 157 346 l 400 346 l 400 225 l 642 225 l 642 346 l 764 346 l 764 468 l 642 468 l 642 346 l 400 346 l 400 468 l 157 468 l 157 346 z "}," ":{"ha":429,"x_min":0,"x_max":0,"o":""},"¡":{"ha":346,"x_min":0,"x_max":0,"o":"m 51 589 l 51 -140 l 294 -140 l 294 589 z m 294 711 l 294 832 l 51 832 l 51 711 z "},"¢":{"ha":819,"x_min":0,"x_max":0,"o":"m 47 225 l 169 225 l 169 103 l 290 103 l 290 -18 l 533 -18 l 533 103 l 654 103 l 654 225 l 776 225 l 776 346 l 533 346 l 533 225 l 290 225 l 290 711 l 533 711 l 533 589 l 776 589 l 776 711 l 654 711 l 654 832 l 533 832 l 533 954 l 290 954 l 290 832 l 169 832 l 169 711 l 47 711 z "},"£":{"ha":1111,"x_min":0,"x_max":0,"o":"m 69 -18 l 1042 -18 l 1042 103 l 433 103 l 433 225 l 556 225 l 556 346 l 799 346 l 799 468 l 556 468 l 556 832 l 676 832 l 676 711 l 919 711 l 919 832 l 799 832 l 799 954 l 433 954 l 433 832 l 313 832 l 313 468 l 192 468 l 192 346 l 313 346 l 313 225 l 192 225 l 192 103 l 69 103 z "},"¤":{"ha":811,"x_min":0,"x_max":0,"o":"m 40 103 l 40 -18 l 163 -18 l 163 103 l 649 103 l 649 -18 l 769 -18 l 769 103 l 649 103 l 647 589 l 163 589 l 163 711 l 40 711 l 40 589 l 163 589 l 163 103 z m 526 468 l 526 225 l 283 225 l 283 468 z m 649 711 l 649 589 l 769 589 l 769 711 z "},"¥":{"ha":831,"x_min":0,"x_max":0,"o":"m 50 954 l 50 711 l 172 711 l 172 589 l 50 589 l 50 468 l 293 468 l 293 346 l 50 346 l 50 225 l 293 225 l 293 -18 l 536 -18 l 536 225 l 779 225 l 779 346 l 536 346 l 536 468 l 779 468 l 779 589 l 657 589 l 657 711 l 779 711 l 779 954 l 536 954 l 536 589 l 293 589 l 293 954 z "},"¦":{"ha":346,"x_min":0,"x_max":0,"o":"m 51 225 l 51 -261 l 294 -261 l 294 225 z m 294 468 l 294 954 l 51 954 l 51 468 z "},"§":{"ha":829,"x_min":0,"x_max":0,"o":"m 50 -18 l 50 -140 l 171 -140 l 171 -261 l 657 -261 l 657 -140 l 779 -140 l 779 103 l 657 103 l 657 225 l 779 225 l 779 468 l 657 468 l 657 589 l 293 589 l 293 832 l 657 832 l 657 711 l 779 711 l 779 832 l 657 832 l 657 954 l 171 954 l 171 832 l 50 832 l 50 589 l 171 589 l 171 468 l 50 468 l 50 225 l 171 225 l 171 103 l 536 103 l 536 -140 l 171 -140 l 171 -18 z m 293 468 l 536 468 l 536 225 l 293 225 z "},"¨":{"ha":432,"x_min":0,"x_max":0,"o":"m 399 832 l 399 954 l 276 954 l 276 832 z m 33 832 l 154 832 l 154 954 l 33 954 z "},"©":{"ha":1310,"x_min":0,"x_max":0,"o":"m 168 225 l 168 103 l 290 103 l 290 -18 l 1019 -18 l 1019 103 l 1140 103 l 1140 225 l 1263 225 l 1263 711 l 1140 711 l 1140 832 l 1019 832 l 1019 954 l 290 954 l 290 832 l 168 832 l 168 711 l 47 711 l 47 225 z m 168 225 l 168 711 l 290 711 l 290 832 l 1019 832 l 1019 711 l 1140 711 l 1140 225 l 1019 225 l 1019 103 l 290 103 l 290 225 z m 411 346 l 411 225 l 897 225 l 897 346 l 533 346 l 533 589 l 897 589 l 897 711 l 411 711 l 411 589 l 290 589 l 290 346 z "},"ª":{"ha":818,"x_min":0,"x_max":0,"o":"m 42 832 l 42 589 l 163 589 l 163 468 l 771 468 l 771 954 l 163 954 l 163 832 z m 285 832 l 528 832 l 528 589 l 285 589 z "},"«":{"ha":931,"x_min":0,"x_max":0,"o":"m 40 225 l 161 225 l 161 103 l 283 103 l 283 -18 l 526 -18 l 526 103 l 647 103 l 647 -18 l 890 -18 l 890 103 l 769 103 l 769 225 l 647 225 l 647 468 l 769 468 l 769 589 l 890 589 l 890 711 l 647 711 l 647 589 l 526 589 l 526 711 l 283 711 l 283 589 l 163 589 l 163 468 l 40 468 z m 283 468 l 404 468 l 404 589 l 526 589 l 526 468 l 404 468 l 404 225 l 526 225 l 526 103 l 404 103 l 404 225 l 283 225 z "},"¬":{"ha":926,"x_min":0,"x_max":0,"o":"m 882 346 l 32 346 l 32 225 l 640 225 l 640 -18 l 883 -18 z "},"­":{"ha":0,"x_min":0,"x_max":0,"o":""},"®":{"ha":700,"x_min":0,"x_max":0,"o":"m 46 468 l 107 468 l 107 407 l 167 407 l 167 346 l 532 346 l 532 407 l 593 407 l 593 468 l 653 468 l 653 832 l 593 832 l 593 893 l 532 893 l 532 954 l 167 954 l 167 893 l 107 893 l 107 832 l 46 832 z m 107 832 l 167 832 l 167 893 l 532 893 l 532 832 l 593 832 l 593 468 l 532 468 l 532 407 l 167 407 l 167 468 l 107 468 z m 167 468 l 289 468 l 289 589 l 410 589 l 410 468 l 532 468 l 532 589 l 471 589 l 471 650 l 532 650 l 532 771 l 471 771 l 471 832 l 167 832 z m 289 771 l 410 771 l 410 650 l 289 650 z "},"¯":{"ha":553,"x_min":0,"x_max":0,"o":"m 519 954 l 33 954 l 33 832 l 519 832 z "},"°":{"ha":440,"x_min":0,"x_max":0,"o":"m 38 589 l 160 589 l 160 468 l 281 468 l 281 589 l 403 589 l 403 711 l 281 711 l 281 832 l 160 832 l 160 711 l 38 711 z m 281 589 l 160 589 l 160 711 l 281 711 z "},"±":{"ha":683,"x_min":0,"x_max":0,"o":"m 38 589 l 38 468 l 281 468 l 281 225 l 403 225 l 403 468 l 644 468 l 644 589 l 403 589 l 403 832 l 281 832 l 281 589 z m 644 -18 l 644 103 l 38 103 l 38 -18 z "},"´":{"ha":313,"x_min":0,"x_max":0,"o":"m 35 711 l 156 711 l 156 832 l 278 832 l 278 954 l 156 954 l 156 832 l 35 832 z "},"·":{"ha":321,"x_min":0,"x_max":0,"o":"m 282 468 l 39 468 l 39 225 l 282 225 z "},"¸":{"ha":313,"x_min":0,"x_max":0,"o":"m 156 -261 l 156 -140 l 278 -140 l 278 -18 l 156 -18 l 156 103 l 278 103 l 278 225 l 156 225 l 156 103 l 35 103 l 35 -18 l 156 -18 l 156 -140 l -87 -140 l -87 -261 z "},"º":{"ha":449,"x_min":0,"x_max":0,"o":"m 42 589 l 42 346 l 163 346 l 163 225 l 285 225 l 285 346 l 407 346 l 407 589 l 285 589 l 285 711 l 163 711 l 163 589 z m 163 346 l 163 589 l 285 589 l 285 346 z "},"»":{"ha":931,"x_min":0,"x_max":0,"o":"m 39 711 l 39 589 l 161 589 l 161 468 l 282 468 l 282 225 l 161 225 l 161 103 l 39 103 l 39 -18 l 282 -18 l 282 103 l 403 103 l 403 -18 l 646 -18 l 646 103 l 768 103 l 768 225 l 889 225 l 889 468 l 768 468 l 768 589 l 646 589 l 646 711 l 403 711 l 403 589 l 282 589 l 282 711 z m 404 589 l 525 589 l 525 468 l 646 468 l 646 225 l 525 225 l 525 103 l 404 103 l 404 225 l 525 225 l 525 468 l 404 468 z "},"¿":{"ha":831,"x_min":0,"x_max":0,"o":"m 32 -18 l 153 -18 l 153 -140 l 639 -140 l 639 -18 l 761 -18 l 761 103 l 518 103 l 518 -18 l 275 -18 l 275 225 l 518 225 l 518 589 l 275 589 l 275 346 l 153 346 l 153 225 l 32 225 z m 275 832 l 275 711 l 518 711 l 518 832 z "},"À":{"ha":832,"x_min":0,"x_max":0,"o":"m 51 0 l 294 0 l 294 486 l 538 486 l 538 0 l 781 0 l 781 850 l 658 850 l 658 972 l 174 972 l 174 850 l 51 850 z m 294 850 l 538 850 l 538 607 l 294 607 z m 294 1215 l 417 1215 l 417 1093 l 538 1093 l 538 1215 l 417 1215 l 417 1336 l 294 1336 z "},"Á":{"ha":833,"x_min":0,"x_max":0,"o":"m 51 0 l 294 0 l 294 486 l 538 486 l 538 0 l 781 0 l 781 850 l 658 850 l 658 972 l 174 972 l 174 850 l 51 850 z m 294 850 l 538 850 l 538 607 l 294 607 z m 294 1215 l 294 1093 l 415 1093 l 415 1215 z m 417 1215 l 538 1215 l 538 1336 l 417 1336 z "},"Â":{"ha":832,"x_min":0,"x_max":0,"o":"m 51 0 l 294 0 l 294 486 l 538 486 l 538 0 l 781 0 l 781 850 l 658 850 l 658 972 l 174 972 l 174 850 l 51 850 z m 294 850 l 538 850 l 538 607 l 294 607 z m 233 1215 l 233 1093 l 356 1093 l 356 1215 l 476 1215 l 476 1093 l 599 1093 l 599 1215 l 476 1215 l 476 1336 l 356 1336 l 356 1215 z "},"Ã":{"ha":833,"x_min":0,"x_max":0,"o":"m 51 0 l 294 0 l 294 486 l 538 486 l 538 0 l 781 0 l 781 850 l 658 850 l 658 972 l 174 972 l 174 850 l 51 850 z m 294 607 l 294 850 l 538 850 l 538 607 z m 174 1215 l 174 1093 l 294 1093 l 294 1215 l 417 1215 l 417 1093 l 538 1093 l 538 1215 l 658 1215 l 658 1336 l 538 1336 l 538 1215 l 417 1215 l 417 1336 l 294 1336 l 294 1215 z "},"Ä":{"ha":832,"x_min":0,"x_max":0,"o":"m 51 850 l 51 0 l 294 0 l 294 486 l 538 486 l 538 0 l 781 0 l 781 850 l 658 850 l 658 972 l 172 972 l 172 850 z m 294 607 l 294 850 l 538 850 l 538 607 z m 599 1093 l 599 1215 l 476 1215 l 476 1093 z m 356 1093 l 356 1215 l 233 1215 l 233 1093 z "},"Å":{"ha":832,"x_min":0,"x_max":0,"o":"m 51 0 l 294 0 l 294 486 l 538 486 l 538 0 l 781 0 l 781 850 l 658 850 l 658 972 l 476 972 l 476 1093 l 599 1093 l 599 1215 l 476 1215 l 476 1336 l 356 1336 l 356 1215 l 233 1215 l 233 1093 l 356 1093 l 356 972 l 174 972 l 174 850 l 51 850 z m 294 850 l 538 850 l 538 607 l 294 607 z m 476 1093 l 356 1093 l 356 1215 l 476 1215 z "},"Æ":{"ha":1303,"x_min":0,"x_max":0,"o":"m 294 0 l 294 486 l 538 486 l 538 0 l 1267 0 l 1267 364 l 1024 364 l 1024 121 l 781 121 l 781 486 l 1024 486 l 1024 607 l 781 607 l 781 850 l 1024 850 l 1024 729 l 1267 729 l 1267 972 l 172 972 l 172 850 l 51 850 l 51 0 z m 294 850 l 538 850 l 538 607 l 294 607 z "},"Ç":{"ha":818,"x_min":0,"x_max":0,"o":"m 167 121 l 167 0 l 532 0 l 532 -121 l 289 -121 l 289 -243 l 532 -243 l 532 -122 l 653 -122 l 653 121 l 775 121 l 775 486 l 532 486 l 532 121 l 289 121 l 289 850 l 532 850 l 532 607 l 775 607 l 775 850 l 653 850 l 653 972 l 167 972 l 167 850 l 46 850 l 46 121 z "},"È":{"ha":821,"x_min":0,"x_max":0,"o":"m 56 0 l 785 0 l 785 364 l 542 364 l 542 121 l 299 121 l 299 486 l 542 486 l 542 607 l 299 607 l 299 850 l 542 850 l 542 729 l 785 729 l 785 972 l 56 972 z m 299 1215 l 421 1215 l 421 1093 l 542 1093 l 542 1215 l 421 1215 l 421 1336 l 299 1336 z "},"É":{"ha":821,"x_min":0,"x_max":0,"o":"m 56 0 l 785 0 l 785 364 l 542 364 l 542 121 l 299 121 l 299 486 l 542 486 l 542 607 l 299 607 l 299 850 l 542 850 l 542 729 l 785 729 l 785 972 l 56 972 z m 419 1093 l 419 1215 l 542 1215 l 542 1336 l 419 1336 l 419 1215 l 299 1215 l 299 1093 z "},"Ê":{"ha":822,"x_min":0,"x_max":0,"o":"m 785 0 l 785 364 l 542 364 l 542 121 l 299 121 l 299 486 l 542 486 l 542 607 l 299 607 l 299 850 l 542 850 l 542 729 l 785 729 l 785 972 l 56 972 l 56 0 z m 238 1093 l 360 1093 l 360 1215 l 481 1215 l 481 1093 l 603 1093 l 603 1215 l 481 1215 l 481 1336 l 360 1336 l 360 1215 l 238 1215 z "},"Ë":{"ha":822,"x_min":0,"x_max":0,"o":"m 56 0 l 785 0 l 785 364 l 542 364 l 542 121 l 299 121 l 299 486 l 542 486 l 542 607 l 299 607 l 299 850 l 542 850 l 542 729 l 785 729 l 785 972 l 56 972 z m 481 1215 l 481 1093 l 603 1093 l 603 1215 z m 360 1093 l 360 1215 l 238 1215 l 238 1093 z "},"Ì":{"ha":354,"x_min":0,"x_max":0,"o":"m 56 972 l 56 0 l 299 0 l 299 972 z m 56 1336 l 56 1215 l 178 1215 l 178 1093 l 299 1093 l 299 1215 l 178 1215 l 178 1336 z "},"Í":{"ha":354,"x_min":0,"x_max":0,"o":"m 56 972 l 56 0 l 299 0 l 299 972 z m 56 1215 l 56 1093 l 178 1093 l 178 1215 l 299 1215 l 299 1336 l 176 1336 l 176 1215 z "},"Î":{"ha":354,"x_min":0,"x_max":0,"o":"m 56 0 l 299 0 l 299 972 l 56 972 z m -6 1093 l 115 1093 l 115 1215 l 238 1215 l 238 1093 l 360 1093 l 360 1215 l 238 1215 l 238 1336 l 115 1336 l 115 1215 l -6 1215 z "},"Ï":{"ha":354,"x_min":0,"x_max":0,"o":"m 56 972 l 56 0 l 299 0 l 299 972 z m 238 1215 l 238 1093 l 360 1093 l 360 1215 z m -6 1215 l -6 1093 l 117 1093 l 117 1215 z "},"Ð":{"ha":903,"x_min":0,"x_max":0,"o":"m 126 486 l 126 0 l 735 0 l 735 121 l 856 121 l 856 850 l 735 850 l 735 972 l 126 972 l 126 607 l 6 607 l 6 486 z m 613 121 l 369 121 l 369 486 l 492 486 l 492 607 l 369 607 l 369 850 l 613 850 z "},"Ñ":{"ha":840,"x_min":0,"x_max":0,"o":"m 299 0 l 299 729 l 419 729 l 419 607 l 542 607 l 542 0 l 785 0 l 785 972 l 542 972 l 542 729 l 419 729 l 419 850 l 299 850 l 299 972 l 56 972 l 56 0 z m 299 1093 l 299 1215 l 419 1215 l 419 1093 l 542 1093 l 542 1215 l 663 1215 l 663 1336 l 542 1336 l 542 1215 l 419 1215 l 419 1336 l 299 1336 l 299 1215 l 178 1215 l 178 1093 z "},"Ò":{"ha":822,"x_min":0,"x_max":0,"o":"m 168 121 l 168 0 l 653 0 l 653 121 l 775 121 l 775 850 l 653 850 l 653 972 l 168 972 l 168 850 l 46 850 l 46 121 z m 289 850 l 532 850 l 532 121 l 289 121 z m 411 1215 l 411 1093 l 532 1093 l 532 1215 l 411 1215 l 411 1336 l 289 1336 l 289 1215 z "},"Ó":{"ha":821,"x_min":0,"x_max":0,"o":"m 167 121 l 167 0 l 653 0 l 653 121 l 775 121 l 775 850 l 653 850 l 653 972 l 167 972 l 167 850 l 46 850 l 46 121 z m 289 850 l 532 850 l 532 121 l 289 121 z m 410 1093 l 410 1215 l 532 1215 l 532 1336 l 410 1336 l 410 1215 l 289 1215 l 289 1093 z "},"Ô":{"ha":821,"x_min":0,"x_max":0,"o":"m 168 121 l 168 0 l 653 0 l 653 121 l 775 121 l 775 850 l 653 850 l 653 972 l 168 972 l 168 850 l 46 850 l 46 121 z m 289 850 l 532 850 l 532 121 l 289 121 z m 228 1093 l 350 1093 l 350 1215 l 471 1215 l 471 1093 l 593 1093 l 593 1215 l 471 1215 l 471 1336 l 350 1336 l 350 1215 l 228 1215 z "},"Õ":{"ha":821,"x_min":0,"x_max":0,"o":"m 167 121 l 167 0 l 653 0 l 653 121 l 775 121 l 775 850 l 653 850 l 653 972 l 167 972 l 167 850 l 46 850 l 46 121 z m 289 850 l 532 850 l 532 121 l 289 121 z m 167 1215 l 167 1093 l 289 1093 l 289 1215 l 410 1215 l 410 1093 l 532 1093 l 532 1215 l 653 1215 l 653 1336 l 532 1336 l 532 1215 l 410 1215 l 410 1336 l 289 1336 l 289 1215 z "},"Ö":{"ha":821,"x_min":0,"x_max":0,"o":"m 46 121 l 168 121 l 168 0 l 653 0 l 653 121 l 775 121 l 775 850 l 653 850 l 653 972 l 168 972 l 168 850 l 46 850 z m 289 850 l 532 850 l 532 121 l 289 121 z m 471 1093 l 593 1093 l 593 1215 l 471 1215 z m 228 1093 l 350 1093 l 350 1215 l 228 1215 z "},"×":{"ha":689,"x_min":0,"x_max":0,"o":"m 40 103 l 40 -18 l 163 -18 l 163 103 l 283 103 l 283 225 l 404 225 l 404 346 l 283 346 l 283 468 l 163 468 l 163 589 l 40 589 l 40 468 l 163 468 l 163 346 l 283 346 l 283 225 l 163 225 l 163 103 z m 526 346 l 526 468 l 649 468 l 649 589 l 526 589 l 526 468 l 406 468 l 406 346 z m 406 225 l 406 103 l 526 103 l 526 -18 l 649 -18 l 649 103 l 526 103 l 526 225 z "},"Ø":{"ha":824,"x_min":0,"x_max":0,"o":"m 47 225 l 168 225 l 168 103 l 47 103 l 47 -18 l 654 -18 l 654 103 l 776 103 l 776 711 l 654 711 l 654 832 l 776 832 l 776 954 l 168 954 l 168 832 l 47 832 z m 290 468 l 411 468 l 411 589 l 290 589 l 290 832 l 533 832 l 533 711 l 413 711 l 413 589 l 533 589 l 533 103 l 290 103 z "},"Ù":{"ha":835,"x_min":0,"x_max":0,"o":"m 50 121 l 171 121 l 171 0 l 779 0 l 779 972 l 536 972 l 536 121 l 293 121 l 293 972 l 50 972 z m 414 1215 l 414 1093 l 536 1093 l 536 1215 l 414 1215 l 414 1336 l 293 1336 l 293 1215 z "},"Ú":{"ha":836,"x_min":0,"x_max":0,"o":"m 50 121 l 172 121 l 172 0 l 779 0 l 779 972 l 536 972 l 536 121 l 293 121 l 293 972 l 50 972 z m 415 1093 l 415 1215 l 536 1215 l 536 1336 l 415 1336 l 415 1215 l 293 1215 l 293 1093 z "},"Û":{"ha":835,"x_min":0,"x_max":0,"o":"m 50 972 l 50 121 l 171 121 l 171 0 l 779 0 l 779 972 l 536 972 l 536 121 l 293 121 l 293 972 z m 354 1093 l 354 1215 l 475 1215 l 475 1093 l 597 1093 l 597 1215 l 475 1215 l 475 1336 l 354 1336 l 354 1215 l 232 1215 l 232 1093 z "},"Ü":{"ha":836,"x_min":0,"x_max":0,"o":"m 50 972 l 50 121 l 172 121 l 172 0 l 779 0 l 779 972 l 536 972 l 536 121 l 293 121 l 293 972 z m 597 1093 l 597 1215 l 475 1215 l 475 1093 z m 232 1215 l 232 1093 l 354 1093 l 354 1215 z "},"Ý":{"ha":729,"x_min":0,"x_max":0,"o":"m 0 729 l 121 729 l 121 607 l 243 607 l 243 0 l 486 0 l 486 607 l 607 607 l 607 729 l 729 729 l 729 972 l 486 972 l 486 607 l 243 607 l 243 972 l 0 972 z m 364 1093 l 364 1215 l 486 1215 l 486 1336 l 364 1336 l 364 1215 l 243 1215 l 243 1093 z "},"Þ":{"ha":814,"x_min":0,"x_max":0,"o":"m 54 -18 l 297 -18 l 297 103 l 661 103 l 661 225 l 783 225 l 783 711 l 663 711 l 663 832 l 297 832 l 297 954 l 54 954 z m 540 225 l 297 225 l 297 711 l 540 711 z "},"ß":{"ha":824,"x_min":0,"x_max":0,"o":"m 294 -18 l 294 832 l 538 832 l 538 589 l 417 589 l 417 468 l 538 468 l 538 103 l 417 103 l 417 -18 l 660 -18 l 660 103 l 781 103 l 781 468 l 660 468 l 660 589 l 781 589 l 781 832 l 658 832 l 658 954 l 172 954 l 172 832 l 51 832 l 51 -18 z "},"à":{"ha":793,"x_min":0,"x_max":0,"o":"m 18 365 l 18 122 l 140 122 l 140 0 l 747 0 l 747 607 l 625 607 l 625 729 l 140 729 l 140 607 l 504 607 l 504 486 l 140 486 l 140 365 z m 261 121 l 261 364 l 504 364 l 504 121 z m 261 972 l 383 972 l 383 850 l 504 850 l 504 972 l 383 972 l 383 1093 l 261 1093 z "},"á":{"ha":794,"x_min":0,"x_max":0,"o":"m 261 364 l 504 364 l 504 121 l 261 121 z m 625 729 l 140 729 l 140 607 l 504 607 l 504 486 l 140 486 l 140 365 l 18 365 l 18 122 l 140 122 l 140 0 l 747 0 l 747 607 l 625 607 z m 382 850 l 382 972 l 261 972 l 261 850 z m 383 972 l 504 972 l 504 1093 l 383 1093 z "},"â":{"ha":793,"x_min":0,"x_max":0,"o":"m 18 122 l 140 122 l 140 0 l 747 0 l 747 607 l 625 607 l 625 729 l 140 729 l 140 607 l 504 607 l 504 486 l 140 486 l 140 365 l 18 365 z m 504 364 l 504 121 l 261 121 l 261 364 z m 200 972 l 200 850 l 322 850 l 322 972 l 443 972 l 443 850 l 565 850 l 565 972 l 443 972 l 443 1093 l 322 1093 l 322 972 z "},"ã":{"ha":794,"x_min":0,"x_max":0,"o":"m 261 364 l 504 364 l 504 121 l 261 121 z m 625 729 l 140 729 l 140 607 l 504 607 l 504 486 l 140 486 l 140 365 l 18 365 l 18 122 l 140 122 l 140 0 l 747 0 l 747 607 l 625 607 z m 383 972 l 383 1093 l 261 1093 l 261 972 l 140 972 l 140 850 l 261 850 l 261 972 l 383 972 l 383 850 l 504 850 l 504 972 l 625 972 l 625 1093 l 504 1093 l 504 972 z "},"ä":{"ha":793,"x_min":0,"x_max":0,"o":"m 139 122 l 139 0 l 747 0 l 747 607 l 625 607 l 625 729 l 139 729 l 139 607 l 504 607 l 504 486 l 139 486 l 139 365 l 18 365 l 18 122 z m 504 364 l 504 121 l 261 121 l 261 364 z m 565 850 l 565 972 l 443 972 l 443 850 z m 322 850 l 322 972 l 200 972 l 200 850 z "},"å":{"ha":794,"x_min":0,"x_max":0,"o":"m 18 121 l 140 121 l 140 0 l 747 0 l 747 607 l 625 607 l 625 729 l 443 729 l 443 850 l 565 850 l 565 972 l 443 972 l 443 1093 l 322 1093 l 322 972 l 200 972 l 200 850 l 322 850 l 322 729 l 140 729 l 140 607 l 504 607 l 504 486 l 140 486 l 140 364 l 18 364 z m 504 121 l 261 121 l 261 364 l 504 364 z m 322 972 l 443 972 l 443 850 l 322 850 z "},"æ":{"ha":1263,"x_min":0,"x_max":0,"o":"m 18 364 l 18 121 l 139 121 l 139 0 l 1111 0 l 1111 121 l 747 121 l 747 243 l 1233 243 l 1233 608 l 1111 608 l 1111 729 l 139 729 l 139 607 l 504 607 l 504 486 l 139 486 l 139 364 z m 747 607 l 990 607 l 990 364 l 747 364 z m 261 364 l 504 364 l 504 121 l 261 121 z "},"ç":{"ha":803,"x_min":0,"x_max":0,"o":"m 160 121 l 160 0 l 525 0 l 525 -121 l 282 -121 l 282 -243 l 525 -243 l 525 -122 l 646 -122 l 646 121 l 768 121 l 768 364 l 525 364 l 525 121 l 282 121 l 282 607 l 525 607 l 525 486 l 768 486 l 768 607 l 646 607 l 646 729 l 160 729 l 160 607 l 39 607 l 39 121 z "},"è":{"ha":799,"x_min":0,"x_max":0,"o":"m 39 121 l 161 121 l 161 0 l 646 0 l 646 121 l 282 121 l 282 243 l 768 243 l 768 607 l 647 607 l 647 729 l 161 729 l 161 607 l 39 607 z m 282 364 l 282 607 l 525 607 l 525 364 z m 282 972 l 404 972 l 404 850 l 525 850 l 525 972 l 404 972 l 404 1093 l 282 1093 z "},"é":{"ha":797,"x_min":0,"x_max":0,"o":"m 39 121 l 160 121 l 160 0 l 646 0 l 646 121 l 282 121 l 282 243 l 768 243 l 768 607 l 646 607 l 646 729 l 160 729 l 160 607 l 39 607 z m 282 364 l 282 607 l 525 607 l 525 364 z m 282 850 l 403 850 l 403 972 l 525 972 l 525 1093 l 403 1093 l 403 972 l 282 972 z "},"ê":{"ha":799,"x_min":0,"x_max":0,"o":"m 39 607 l 39 121 l 161 121 l 161 0 l 646 0 l 646 121 l 282 121 l 282 243 l 768 243 l 768 607 l 647 607 l 647 729 l 161 729 l 161 607 z m 282 364 l 282 607 l 525 607 l 525 364 z m 343 850 l 343 972 l 464 972 l 464 850 l 586 850 l 586 972 l 464 972 l 464 1093 l 343 1093 l 343 972 l 221 972 l 221 850 z "},"ë":{"ha":799,"x_min":0,"x_max":0,"o":"m 39 121 l 161 121 l 161 0 l 646 0 l 646 121 l 282 121 l 282 243 l 768 243 l 768 607 l 646 607 l 646 729 l 161 729 l 161 607 l 39 607 z m 282 364 l 282 607 l 525 607 l 525 364 z m 464 850 l 586 850 l 586 972 l 464 972 z m 221 972 l 221 850 l 343 850 l 343 972 z "},"ì":{"ha":346,"x_min":0,"x_max":0,"o":"m 51 729 l 51 0 l 294 0 l 294 729 z m 51 1093 l 51 972 l 174 972 l 174 850 l 294 850 l 294 972 l 174 972 l 174 1093 z "},"í":{"ha":346,"x_min":0,"x_max":0,"o":"m 51 729 l 51 0 l 294 0 l 294 729 z m 51 972 l 51 850 l 174 850 l 174 972 l 294 972 l 294 1093 l 172 1093 l 172 972 z "},"î":{"ha":346,"x_min":0,"x_max":0,"o":"m 51 0 l 294 0 l 294 729 l 51 729 z m -10 850 l 111 850 l 111 972 l 233 972 l 233 850 l 356 850 l 356 972 l 233 972 l 233 1093 l 111 1093 l 111 972 l -10 972 z "},"ï":{"ha":346,"x_min":0,"x_max":0,"o":"m 51 729 l 51 0 l 294 0 l 294 729 z m 233 972 l 233 850 l 356 850 l 356 972 z m -10 972 l -10 850 l 113 850 l 113 972 z "},"ð":{"ha":864,"x_min":0,"x_max":0,"o":"m 139 103 l 139 -18 l 625 -18 l 625 103 l 747 103 l 747 711 l 868 711 l 868 832 l 625 832 l 625 954 l 382 954 l 382 832 l 504 832 l 504 711 l 139 711 l 139 589 l 504 589 l 504 468 l 139 468 l 139 346 l 18 346 l 18 103 z m 504 103 l 261 103 l 261 346 l 504 346 z "},"ñ":{"ha":826,"x_min":0,"x_max":0,"o":"m 51 0 l 294 0 l 294 607 l 538 607 l 538 0 l 781 0 l 781 607 l 658 607 l 658 729 l 51 729 z m 174 850 l 294 850 l 294 972 l 415 972 l 415 850 l 538 850 l 538 972 l 658 972 l 658 1093 l 538 1093 l 538 972 l 415 972 l 415 1093 l 294 1093 l 294 972 l 174 972 z "},"ò":{"ha":808,"x_min":0,"x_max":0,"o":"m 161 121 l 161 0 l 646 0 l 646 121 l 768 121 l 768 607 l 646 607 l 646 729 l 161 729 l 161 607 l 39 607 l 39 121 z m 282 607 l 525 607 l 525 121 l 282 121 z m 404 972 l 404 850 l 525 850 l 525 972 l 404 972 l 404 1093 l 282 1093 l 282 972 z "},"ó":{"ha":807,"x_min":0,"x_max":0,"o":"m 160 121 l 160 0 l 646 0 l 646 121 l 768 121 l 768 607 l 646 607 l 646 729 l 160 729 l 160 607 l 39 607 l 39 121 z m 282 607 l 525 607 l 525 121 l 282 121 z m 403 850 l 403 972 l 525 972 l 525 1093 l 403 1093 l 403 972 l 282 972 l 282 850 z "},"ô":{"ha":807,"x_min":0,"x_max":0,"o":"m 161 121 l 161 0 l 646 0 l 646 121 l 768 121 l 768 607 l 646 607 l 646 729 l 161 729 l 161 607 l 39 607 l 39 121 z m 282 607 l 525 607 l 525 121 l 282 121 z m 221 850 l 343 850 l 343 972 l 464 972 l 464 850 l 586 850 l 586 972 l 464 972 l 464 1093 l 343 1093 l 343 972 l 221 972 z "},"õ":{"ha":807,"x_min":0,"x_max":0,"o":"m 160 121 l 160 0 l 646 0 l 646 121 l 768 121 l 768 607 l 646 607 l 646 729 l 160 729 l 160 607 l 39 607 l 39 121 z m 282 607 l 525 607 l 525 121 l 282 121 z m 160 972 l 160 850 l 282 850 l 282 972 l 403 972 l 403 850 l 525 850 l 525 972 l 646 972 l 646 1093 l 525 1093 l 525 972 l 403 972 l 403 1093 l 282 1093 l 282 972 z "},"ö":{"ha":807,"x_min":0,"x_max":0,"o":"m 39 121 l 161 121 l 161 0 l 646 0 l 646 121 l 768 121 l 768 607 l 646 607 l 646 729 l 161 729 l 161 607 l 39 607 z m 282 607 l 525 607 l 525 121 l 282 121 z m 464 850 l 586 850 l 586 972 l 464 972 z m 221 850 l 343 850 l 343 972 l 221 972 z "},"÷":{"ha":656,"x_min":0,"x_max":0,"o":"m 631 225 l 631 346 l 24 346 l 24 225 z m 267 589 l 267 468 l 388 468 l 388 589 z m 267 103 l 267 -18 l 388 -18 l 388 103 z "},"ø":{"ha":813,"x_min":0,"x_max":0,"o":"m 647 -18 l 647 103 l 769 103 l 769 468 l 647 468 l 647 589 l 769 589 l 769 711 l 163 711 l 163 589 l 40 589 l 40 225 l 163 225 l 163 103 l 40 103 l 40 -18 z m 283 103 l 283 225 l 404 225 l 404 346 l 283 346 l 283 589 l 526 589 l 526 468 l 406 468 l 406 346 l 526 346 l 526 103 z "},"ù":{"ha":825,"x_min":0,"x_max":0,"o":"m 44 121 l 165 121 l 165 0 l 774 0 l 774 729 l 531 729 l 531 121 l 288 121 l 288 729 l 44 729 z m 408 972 l 408 850 l 531 850 l 531 972 l 408 972 l 408 1093 l 288 1093 l 288 972 z "},"ú":{"ha":826,"x_min":0,"x_max":0,"o":"m 44 121 l 167 121 l 167 0 l 774 0 l 774 729 l 531 729 l 531 121 l 288 121 l 288 729 l 44 729 z m 410 850 l 410 972 l 531 972 l 531 1093 l 410 1093 l 410 972 l 288 972 l 288 850 z "},"û":{"ha":825,"x_min":0,"x_max":0,"o":"m 44 729 l 44 121 l 165 121 l 165 0 l 774 0 l 774 729 l 531 729 l 531 121 l 288 121 l 288 729 z m 349 850 l 349 972 l 469 972 l 469 850 l 592 850 l 592 972 l 469 972 l 469 1093 l 349 1093 l 349 972 l 226 972 l 226 850 z "},"ü":{"ha":826,"x_min":0,"x_max":0,"o":"m 44 729 l 44 121 l 167 121 l 167 0 l 774 0 l 774 729 l 531 729 l 531 121 l 288 121 l 288 729 z m 592 850 l 592 972 l 469 972 l 469 850 z m 226 972 l 226 850 l 349 850 l 349 972 z "},"ý":{"ha":825,"x_min":0,"x_max":0,"o":"m 44 122 l 165 122 l 165 0 l 531 0 l 531 -122 l 165 -122 l 165 -243 l 651 -243 l 651 -122 l 774 -122 l 774 729 l 531 729 l 531 122 l 288 122 l 288 729 l 44 729 z m 408 850 l 408 972 l 531 972 l 531 1093 l 408 1093 l 408 972 l 288 972 l 288 850 z "},"þ":{"ha":821,"x_min":0,"x_max":0,"o":"m 51 954 l 51 -261 l 294 -261 l 294 -18 l 658 -18 l 658 103 l 781 103 l 781 589 l 658 589 l 658 711 l 294 711 l 294 954 z m 538 103 l 294 103 l 294 589 l 538 589 z "},"ÿ":{"ha":825,"x_min":0,"x_max":0,"o":"m 44 122 l 165 122 l 165 0 l 531 0 l 531 -122 l 165 -122 l 165 -243 l 651 -243 l 651 -122 l 774 -122 l 774 729 l 531 729 l 531 122 l 288 122 l 288 729 l 44 729 z m 592 850 l 592 972 l 469 972 l 469 850 z m 226 972 l 226 850 l 349 850 l 349 972 z "},"Đ":{"ha":903,"x_min":0,"x_max":0,"o":"m 128 486 l 128 0 l 735 0 l 735 121 l 856 121 l 856 850 l 735 850 l 735 972 l 128 972 l 128 607 l 6 607 l 6 486 z m 614 121 l 371 121 l 371 486 l 492 486 l 492 607 l 371 607 l 371 850 l 613 850 z "},"đ":{"ha":819,"x_min":0,"x_max":0,"o":"m 39 121 l 161 121 l 161 0 l 768 0 l 768 972 l 525 972 l 525 911 l 161 911 l 161 790 l 525 790 l 525 729 l 161 729 l 161 607 l 39 607 z m 525 121 l 282 121 l 282 607 l 525 607 z "},"Ł":{"ha":846,"x_min":0,"x_max":0,"o":"m 126 243 l 126 0 l 856 0 l 856 121 l 369 121 l 369 486 l 492 486 l 492 607 l 613 607 l 613 729 l 492 729 l 492 607 l 369 607 l 369 972 l 126 972 l 126 364 l 6 364 l 6 243 z "},"ł":{"ha":615,"x_min":0,"x_max":0,"o":"m 8 243 l 129 243 l 129 0 l 372 0 l 372 486 l 494 486 l 494 607 l 615 607 l 615 729 l 494 729 l 494 607 l 372 607 l 372 972 l 129 972 l 129 364 l 8 364 z "},"Œ":{"ha":1297,"x_min":0,"x_max":0,"o":"m 46 121 l 167 121 l 167 0 l 1261 0 l 1261 364 l 1018 364 l 1018 121 l 775 121 l 775 486 l 1018 486 l 1018 607 l 775 607 l 775 850 l 1018 850 l 1018 729 l 1261 729 l 1261 972 l 167 972 l 167 850 l 46 850 z m 289 850 l 532 850 l 532 121 l 289 121 z "},"œ":{"ha":1283,"x_min":0,"x_max":0,"o":"m 160 121 l 160 0 l 1132 0 l 1132 121 l 768 121 l 768 243 l 1254 243 l 1254 608 l 1132 608 l 1132 729 l 160 729 l 160 607 l 39 607 l 39 121 z m 282 607 l 525 607 l 525 121 l 282 121 z m 768 607 l 1011 607 l 1011 364 l 768 364 z "},"Š":{"ha":803,"x_min":0,"x_max":0,"o":"m 36 607 l 158 607 l 158 486 l 522 486 l 522 121 l 279 121 l 279 364 l 36 364 l 36 121 l 158 121 l 158 0 l 643 0 l 643 121 l 765 121 l 765 486 l 643 486 l 643 607 l 279 607 l 279 850 l 522 850 l 522 729 l 765 729 l 765 850 l 643 850 l 643 972 l 158 972 l 158 850 l 36 850 z m 218 1336 l 218 1215 l 340 1215 l 340 1093 l 461 1093 l 461 1215 l 583 1215 l 583 1336 l 461 1336 l 461 1215 l 340 1215 l 340 1336 z "},"š":{"ha":775,"x_min":0,"x_max":0,"o":"m 149 121 l 149 0 l 633 0 l 633 121 l 756 121 l 756 364 l 633 365 l 633 486 l 269 486 l 269 607 l 633 607 l 633 729 l 149 729 l 149 607 l 26 607 l 26 486 l 149 486 l 149 364 l 513 364 l 513 121 l 149 121 l 149 243 l 26 243 l 26 121 z m 208 1093 l 208 972 l 331 972 l 331 850 l 451 850 l 451 972 l 574 972 l 574 1093 l 451 1093 l 451 972 l 331 972 l 331 1093 z "},"Ÿ":{"ha":729,"x_min":0,"x_max":0,"o":"m 0 729 l 122 729 l 122 607 l 243 607 l 243 0 l 486 0 l 486 607 l 607 607 l 607 729 l 729 729 l 729 972 l 486 972 l 486 607 l 243 607 l 243 972 l 0 972 z m 547 1093 l 547 1215 l 425 1215 l 425 1093 z m 182 1215 l 182 1093 l 304 1093 l 304 1215 z "},"Ž":{"ha":796,"x_min":0,"x_max":0,"o":"m 28 729 l 271 729 l 271 850 l 514 850 l 514 607 l 393 607 l 393 486 l 271 486 l 271 365 l 393 365 l 393 486 l 514 486 l 514 607 l 635 607 l 635 729 l 757 729 l 757 972 l 28 972 z m 28 243 l 28 0 l 757 0 l 757 364 l 514 364 l 514 121 l 271 121 l 271 364 l 150 364 l 150 243 z m 210 1336 l 210 1215 l 332 1215 l 332 1093 l 453 1093 l 453 1215 l 575 1215 l 575 1336 l 453 1336 l 453 1215 l 332 1215 l 332 1336 z "},"ž":{"ha":786,"x_min":0,"x_max":0,"o":"m 28 729 l 28 486 l 271 486 l 271 607 l 514 607 l 514 486 l 393 486 l 393 365 l 271 365 l 271 243 l 150 243 l 150 121 l 28 121 l 28 0 l 757 0 l 757 243 l 514 243 l 514 122 l 271 122 l 271 243 l 393 243 l 393 365 l 514 365 l 514 486 l 636 486 l 636 607 l 757 607 l 757 729 z m 332 972 l 332 850 l 453 850 l 453 972 l 575 972 l 575 1093 l 453 1093 l 453 972 l 332 972 l 332 1093 l 210 1093 l 210 972 z "},"ˆ":{"ha":435,"x_min":0,"x_max":0,"o":"m 35 711 l 157 711 l 157 832 l 278 832 l 278 711 l 400 711 l 400 832 l 278 832 l 278 954 l 157 954 l 157 832 l 35 832 z "},"ˇ":{"ha":435,"x_min":0,"x_max":0,"o":"m 35 954 l 35 832 l 156 832 l 156 711 l 278 711 l 278 832 l 399 832 l 399 954 l 278 954 l 278 832 l 156 832 l 156 954 z "},"˘":{"ha":556,"x_min":0,"x_max":0,"o":"m 156 832 l 156 711 l 399 711 l 399 832 l 521 832 l 521 954 l 399 954 l 399 832 l 156 832 l 156 954 l 35 954 l 35 832 z "},"˙":{"ha":189,"x_min":0,"x_max":0,"o":"m 33 954 l 33 832 l 154 832 l 154 954 z "},"˚":{"ha":440,"x_min":0,"x_max":0,"o":"m 38 711 l 158 711 l 158 589 l 281 589 l 281 711 l 401 711 l 401 832 l 281 832 l 281 954 l 158 954 l 158 832 l 38 832 z m 158 832 l 281 832 l 281 711 l 160 711 z "},"˜":{"ha":556,"x_min":0,"x_max":0,"o":"m 35 832 l 35 711 l 157 711 l 157 832 l 278 832 l 278 711 l 399 711 l 399 832 l 278 832 l 278 954 l 157 954 l 157 832 z m 400 954 l 400 832 l 521 832 l 521 954 z "},"€":{"ha":824,"x_min":0,"x_max":0,"o":"m 43 607 l 43 486 l 165 486 l 165 365 l 43 365 l 43 243 l 165 243 l 165 122 l 286 122 l 286 0 l 772 0 l 772 122 l 408 122 l 408 243 l 772 243 l 772 365 l 408 365 l 408 486 l 772 486 l 772 607 l 408 607 l 408 729 l 772 729 l 772 850 l 286 850 l 286 729 l 165 729 l 165 607 z "},"−":{"ha":797,"x_min":0,"x_max":0,"o":"m 33 346 l 33 225 l 763 225 l 763 346 z "}}}
